<?xml version="1.0" encoding="utf-8"?>
<!-- Generator: Adobe Illustrator 24.0.2, SVG Export Plug-In . SVG Version: 6.00 Build 0)  -->
<svg version="1.1" id="Слой_1" xmlns="http://www.w3.org/2000/svg" xmlns:xlink="http://www.w3.org/1999/xlink" x="0px" y="0px"
	 viewBox="0 0 65 56" style="enable-background:new 0 0 65 56;" xml:space="preserve">
<style type="text/css">
	.st0{fill:#FFFFFF;}
</style>
<path class="st0" d="M25.7,11.3c1.6-0.7,2.3-2.5,1.5-4.1l-2.5-5.3c-0.7-1.5-2.5-2.1-4-1.5c-4.4,1.8-8.2,4.2-11.2,7.1
	C5.9,11,3.4,14.9,2.1,19.3C0.7,23.6,0,29.6,0,37.2v15.6c0,1.7,1.4,3.1,3.1,3.1h20.3c1.7,0,3.1-1.4,3.1-3.1v-20
	c0-1.7-1.4-3.1-3.1-3.1h-9.7c0.1-5.1,1.3-9.3,3.6-12.4C19.2,14.9,21.9,12.8,25.7,11.3z"/>
<path class="st0" d="M63.2,11.3c1.6-0.7,2.3-2.5,1.5-4.1L62.2,2c-0.7-1.5-2.5-2.1-4-1.5C53.8,2.4,50,4.8,47,7.7
	c-3.7,3.4-6.1,7.3-7.5,11.7c-1.3,4.4-2.1,10.3-2.1,17.9v15.6c0,1.7,1.4,3.1,3.1,3.1h20.3c1.7,0,3.1-1.4,3.1-3.1v-20
	c0-1.7-1.4-3.1-3.1-3.1h-9.7c0.1-5.1,1.3-9.3,3.6-12.4C56.6,15,59.4,12.9,63.2,11.3z"/>
</svg>
